HIERARCHY
ROOT joint_Root
{
	OFFSET 0.0 0.0 0.0
	CHANNELS 6 Xposition Yposition Zposition Zrotation Xrotation Yrotation 
	JOINT Hips
	{
		OFFSET -17.1583 93.1646 452.98
		CHANNELS 6 Xposition Yposition Zposition Zrotation Xrotation Yrotation 
		JOINT Spine
		{
			OFFSET 15.7357 0.0 0.0
			CHANNELS 6 Xposition Yposition Zposition Zrotation Xrotation Yrotation 
			JOINT Chest
			{
				OFFSET 8.98455 -0.406207 0.0
				CHANNELS 6 Xposition Yposition Zposition Zrotation Xrotation Yrotation 
				JOINT Neck
				{
					OFFSET 16.3773 0.0 0.0
					CHANNELS 6 Xposition Yposition Zposition Zrotation Xrotation Yrotation 
					JOINT Head
					{
						OFFSET 6.45672 0.0 0.0
						CHANNELS 6 Xposition Yposition Zposition Zrotation Xrotation Yrotation 
						End Site
						{
							OFFSET 0.0 0.0 0.0
						}
					}
				}
				JOINT Shoulder_L
				{
					OFFSET 12.9942 -0.242716 4.98039
					CHANNELS 6 Xposition Yposition Zposition Zrotation Xrotation Yrotation 
					JOINT UpperArm_L
					{
						OFFSET 5.34809 0.0 0.0
						CHANNELS 6 Xposition Yposition Zposition Zrotation Xrotation Yrotation 
						JOINT LowerArm_L
						{
							OFFSET 24.3286 1.87007e-05 0.0
							CHANNELS 6 Xposition Yposition Zposition Zrotation Xrotation Yrotation 
							JOINT Hand_L
							{
								OFFSET 22.2916 0.0 0.0
								CHANNELS 6 Xposition Yposition Zposition Zrotation Xrotation Yrotation 
								End Site
								{
									OFFSET 0.0 0.0 0.0
								}
							}
						}
					}
				}
				JOINT Shoulder_R
				{
					OFFSET 12.9945 -0.242716 -4.98039
					CHANNELS 6 Xposition Yposition Zposition Zrotation Xrotation Yrotation 
					JOINT UpperArm_R
					{
						OFFSET -5.34813 0.0 0.0
						CHANNELS 6 Xposition Yposition Zposition Zrotation Xrotation Yrotation 
						JOINT LowerArm_R
						{
							OFFSET -24.3289 0.000322201 0.0
							CHANNELS 6 Xposition Yposition Zposition Zrotation Xrotation Yrotation 
							JOINT Hand_R
							{
								OFFSET -22.2915 -0.000108084 0.0
								CHANNELS 6 Xposition Yposition Zposition Zrotation Xrotation Yrotation 
								End Site
								{
									OFFSET 0.0 0.0 0.0
								}
							}
						}
					}
				}
			}
		}
		JOINT UpperLeg_L
		{
			OFFSET -2.19248 -6.46944 0.0
			CHANNELS 6 Xposition Yposition Zposition Zrotation Xrotation Yrotation 
			JOINT LowerLeg_L
			{
				OFFSET 39.0811 0.0 -1.23785e-05
				CHANNELS 6 Xposition Yposition Zposition Zrotation Xrotation Yrotation 
				JOINT Foot_L
				{
					OFFSET 40.9854 0.0 -1.26872e-05
					CHANNELS 6 Xposition Yposition Zposition Zrotation Xrotation Yrotation 
					JOINT Toes_L
					{
						OFFSET 11.7543 0.0 0.0
						CHANNELS 6 Xposition Yposition Zposition Zrotation Xrotation Yrotation 
						End Site
						{
							OFFSET 0.0 0.0 0.0
						}
					}
				}
			}
		}
		JOINT UpperLeg_R
		{
			OFFSET -2.19251 6.46944 0.0
			CHANNELS 6 Xposition Yposition Zposition Zrotation Xrotation Yrotation 
			JOINT LowerLeg_R
			{
				OFFSET -39.0811 -0.00228153 -0.0401928
				CHANNELS 6 Xposition Yposition Zposition Zrotation Xrotation Yrotation 
				JOINT Foot_R
				{
					OFFSET -40.9854 0.0 0.0
					CHANNELS 6 Xposition Yposition Zposition Zrotation Xrotation Yrotation 
					JOINT Toes_R
					{
						OFFSET -11.7543 0.0 0.0
						CHANNELS 6 Xposition Yposition Zposition Zrotation Xrotation Yrotation 
						End Site
						{
							OFFSET 0.0 0.0 0.0
						}
					}
				}
			}
		}
	}
}
MOTION
Frames:	4
Frame Time:	0.0333333
0.000000 0.000000 0.000000 0.000000 0.000000 -0.000000 -206.453000 89.375800 196.017000 167.981000 84.131000 -80.879300 15.735700 0.000005 -0.000001 101.665000 88.272300 -102.821000 8.984550 -0.406207 -0.000000 -4.372910 0.820449 -2.281270 16.377300 -0.000001 -0.000001 2.330260 2.403250 -2.034430 6.456720 -0.000001 -0.000000 6.798590 1.975960 0.441953 12.994200 -0.242716 4.980390 -93.048500 8.451140 -70.080700 5.348090 -0.000007 -0.000001 -67.987100 -14.685200 7.093220 24.328600 0.000019 0.000005 8.076810 26.200000 -17.818300 22.291600 -0.000001 0.000005 53.251700 4.550480 15.757200 12.994500 -0.242716 -4.980390 88.592500 4.478250 -72.531800 -5.348130 -0.000001 -0.000004 -73.577700 9.042930 -1.566470 -24.328900 0.000322 -0.000009 -0.328795 -0.955912 -18.937000 -22.291500 -0.000108 -0.000004 47.667700 5.413840 -3.384290 -2.192480 -6.469440 -0.000000 170.092000 8.880400 -24.046700 39.081100 -0.000007 -0.000012 0.416290 -0.587109 35.339400 40.985400 -0.000006 -0.000013 7.059080 7.416850 -67.998600 11.754300 -0.000000 0.000003 -0.000357 0.173434 -9.542090 -2.192510 6.469440 -0.000001 172.228000 5.473990 172.140000 -39.081100 -0.002282 -0.040193 0.366104 -0.248074 55.643000 -40.985400 0.000008 0.000006 -12.772000 2.943750 -21.335500 -11.754300 -0.000006 -0.000006 0.000528 0.158259 -10.154800
0.000000 0.000000 0.000000 0.000000 0.000000 -0.000000 -203.005000 89.730000 196.279000 164.202000 84.361300 -75.514500 15.735700 0.000005 -0.000001 92.203700 87.969400 -93.224200 8.984550 -0.406207 -0.000000 -3.704670 0.258178 -2.033430 16.377300 -0.000001 -0.000001 2.994110 2.765830 -2.076120 6.456720 -0.000001 -0.000000 7.589100 2.786780 0.666680 12.994200 -0.242716 4.980390 -93.004100 8.348900 -70.129100 5.348090 -0.000007 -0.000001 -70.582800 -11.243300 5.180960 24.328600 0.000019 0.000005 8.564540 26.041600 -18.933700 22.291600 -0.000001 0.000005 50.938600 4.567120 15.472400 12.994500 -0.242716 -4.980390 88.698500 4.124130 -72.468700 -5.348130 -0.000001 -0.000004 -73.804100 9.729710 -1.155790 -24.328900 0.000322 -0.000009 -0.373602 -1.455810 -14.349800 -22.291500 -0.000108 -0.000004 46.083700 5.394190 -2.749340 -2.192480 -6.469440 -0.000000 169.914000 7.833060 -19.341300 39.081100 -0.000007 -0.000012 0.423665 -0.620247 34.336300 40.985400 -0.000006 -0.000013 7.695800 7.612160 -69.962200 11.754300 -0.000000 0.000003 -0.000994 0.182952 -9.155390 -2.192510 6.469440 -0.000001 172.476000 3.472390 167.992000 -39.081100 -0.002282 -0.040193 0.317491 -0.162681 62.634800 -40.985400 0.000008 0.000006 -10.793500 2.731740 -31.773100 -11.754300 -0.000006 -0.000006 0.000474 0.159270 -10.113800
0.000000 0.000000 0.000000 0.000000 0.000000 -0.000000 -199.694000 90.344900 196.825000 160.462000 85.506000 -70.293600 15.735700 0.000005 -0.000001 83.696700 87.684700 -84.278600 8.984550 -0.406207 -0.000000 -3.165500 -0.452693 -1.176480 16.377300 -0.000001 -0.000001 3.963760 2.991030 -2.165290 6.456720 -0.000001 -0.000000 8.510540 3.540470 0.926379 12.994200 -0.242716 4.980390 -92.999500 8.345680 -70.149700 5.348090 -0.000007 -0.000001 -72.286600 -7.673520 3.464540 24.328600 0.000019 0.000005 9.508890 24.901400 -21.693200 22.291600 -0.000001 0.000005 45.980900 4.651520 13.996400 12.994500 -0.242716 -4.980390 88.840600 3.638270 -72.311700 -5.348130 -0.000001 -0.000004 -73.933900 9.254890 -0.162907 -24.328900 0.000322 -0.000009 -0.069617 -0.374251 -10.254900 -22.291500 -0.000108 -0.000004 45.857900 5.389870 -2.611010 -2.192480 -6.469440 -0.000000 171.018000 6.261590 -14.071100 39.081100 -0.000007 -0.000012 0.382530 -0.615089 31.878700 40.985400 -0.000006 -0.000013 8.185310 8.687310 -71.437100 11.754300 -0.000000 0.000003 -0.001317 0.187444 -8.972780 -2.192510 6.469440 -0.000001 174.422000 1.521300 164.707000 -39.081100 -0.002282 -0.040193 0.193223 -0.084008 66.155200 -40.985400 0.000008 0.000006 -6.816960 -0.572726 -44.674300 -11.754300 -0.000006 -0.000006 -0.000086 0.169107 -9.714340
0.000000 0.000000 0.000000 0.000000 0.000000 -0.000000 -196.583000 91.051300 197.492000 153.508000 86.910400 -62.413500 15.735700 0.000005 -0.000001 76.649400 87.533700 -76.715800 8.984550 -0.406207 -0.000000 -2.967680 -1.132290 -0.162080 16.377300 -0.000001 -0.000001 4.958810 3.104570 -2.196360 6.456720 -0.000001 -0.000000 9.509680 4.192570 1.190550 12.994200 -0.242716 4.980390 -92.898300 8.093680 -70.221600 5.348090 -0.000007 -0.000001 -73.518900 -5.414630 1.793720 24.328600 0.000019 0.000005 11.647900 25.187800 -25.841700 22.291600 -0.000001 0.000005 39.571000 4.782590 11.598600 12.994500 -0.242716 -4.980390 89.040400 2.983690 -72.161500 -5.348130 -0.000001 -0.000004 -73.816000 7.943400 1.233820 -24.328900 0.000322 -0.000009 0.047053 0.400203 -6.821230 -22.291500 -0.000108 -0.000004 45.502200 5.371930 -2.046380 -2.192480 -6.469440 -0.000000 172.691000 5.535570 -8.885600 39.081100 -0.000007 -0.000012 0.309762 -0.578023 28.187400 40.985400 -0.000006 -0.000013 8.275210 9.436640 -72.205500 11.754300 -0.000000 0.000003 -0.001247 0.186478 -9.012080 -2.192510 6.469440 -0.000001 176.801000 -0.696010 161.933000 -39.081100 -0.002282 -0.040193 0.087550 -0.038080 65.713700 -40.985400 0.000008 0.000006 -5.110750 -7.638240 -55.852600 -11.754300 -0.000006 -0.000006 -0.000863 0.181104 -9.227000
